<?xml version="1.0" encoding="UTF-8" standalone="no"?>
<!DOCTYPE svg PUBLIC "-//W3C//DTD SVG 1.1//EN"
 "http://www.w3.org/Graphics/SVG/1.1/DTD/svg11.dtd">
<!-- Generated by graphviz version 9.0.0 (20230911.1827)
 -->
<!-- Pages: 1 -->
<svg width="1328pt" height="569pt"
 viewBox="0.00 0.00 1328.00 569.50" xmlns="http://www.w3.org/2000/svg" xmlns:xlink="http://www.w3.org/1999/xlink">
<g id="graph0" class="graph" transform="scale(0.46959 0.46959) rotate(0) translate(4 1208.75)">
<polygon fill="white" stroke="none" points="-4,4 -4,-1208.75 2824,-1208.75 2824,4 -4,4"/>
<!-- 140251588510400 -->
<g id="node1" class="node">
<title>140251588510400</title>
<polygon fill="#caff70" stroke="black" points="2570,-31.25 2470,-31.25 2470,0 2570,0 2570,-31.25"/>
<text text-anchor="middle" x="2520" y="-5.75" font-family="monospace" font-size="10.00"> (1, 1, 16000)</text>
</g>
<!-- 140251439849232 -->
<g id="node2" class="node">
<title>140251439849232</title>
<polygon fill="lightgrey" stroke="black" points="2576,-86.5 2464,-86.5 2464,-67.25 2576,-67.25 2576,-86.5"/>
<text text-anchor="middle" x="2520" y="-73" font-family="monospace" font-size="10.00">SigmoidBackward0</text>
</g>
<!-- 140251439849232&#45;&gt;140251588510400 -->
<g id="edge61" class="edge">
<title>140251439849232&#45;&gt;140251588510400</title>
<path fill="none" stroke="black" d="M2520,-66.88C2520,-60.54 2520,-51.7 2520,-43.2"/>
<polygon fill="black" stroke="black" points="2523.5,-43.22 2520,-33.22 2516.5,-43.22 2523.5,-43.22"/>
</g>
<!-- 140251440973952 -->
<g id="node3" class="node">
<title>140251440973952</title>
<polygon fill="lightgrey" stroke="black" points="2588,-141.75 2452,-141.75 2452,-122.5 2588,-122.5 2588,-141.75"/>
<text text-anchor="middle" x="2520" y="-128.25" font-family="monospace" font-size="10.00">ConvolutionBackward0</text>
</g>
<!-- 140251440973952&#45;&gt;140251439849232 -->
<g id="edge1" class="edge">
<title>140251440973952&#45;&gt;140251439849232</title>
<path fill="none" stroke="black" d="M2520,-122.33C2520,-115.82 2520,-106.67 2520,-98.37"/>
<polygon fill="black" stroke="black" points="2523.5,-98.37 2520,-88.37 2516.5,-98.37 2523.5,-98.37"/>
</g>
<!-- 140251443074144 -->
<g id="node4" class="node">
<title>140251443074144</title>
<polygon fill="lightgrey" stroke="black" points="2411,-197 2317,-197 2317,-177.75 2411,-177.75 2411,-197"/>
<text text-anchor="middle" x="2364" y="-183.5" font-family="monospace" font-size="10.00">ReluBackward0</text>
</g>
<!-- 140251443074144&#45;&gt;140251440973952 -->
<g id="edge2" class="edge">
<title>140251443074144&#45;&gt;140251440973952</title>
<path fill="none" stroke="black" d="M2390.46,-177.34C2415.79,-168.7 2454.23,-155.57 2482.67,-145.87"/>
<polygon fill="black" stroke="black" points="2483.64,-149.23 2491.97,-142.69 2481.38,-142.61 2483.64,-149.23"/>
</g>
<!-- 140251443621216 -->
<g id="node5" class="node">
<title>140251443621216</title>
<polygon fill="lightgrey" stroke="black" points="2404,-257.88 2244,-257.88 2244,-238.62 2404,-238.62 2404,-257.88"/>
<text text-anchor="middle" x="2324" y="-244.38" font-family="monospace" font-size="10.00">NativeBatchNormBackward0</text>
</g>
<!-- 140251443621216&#45;&gt;140251443074144 -->
<g id="edge3" class="edge">
<title>140251443621216&#45;&gt;140251443074144</title>
<path fill="none" stroke="black" d="M2330.08,-238.31C2335.71,-230.01 2344.28,-217.39 2351.4,-206.92"/>
<polygon fill="black" stroke="black" points="2354.29,-208.89 2357.02,-198.65 2348.5,-204.96 2354.29,-208.89"/>
</g>
<!-- 140251443618144 -->
<g id="node6" class="node">
<title>140251443618144</title>
<polygon fill="lightgrey" stroke="black" points="2167,-318.75 2031,-318.75 2031,-299.5 2167,-299.5 2167,-318.75"/>
<text text-anchor="middle" x="2099" y="-305.25" font-family="monospace" font-size="10.00">ConvolutionBackward0</text>
</g>
<!-- 140251443618144&#45;&gt;140251443621216 -->
<g id="edge4" class="edge">
<title>140251443618144&#45;&gt;140251443621216</title>
<path fill="none" stroke="black" d="M2133.66,-299.05C2172.48,-288.9 2235.53,-272.4 2278.34,-261.2"/>
<polygon fill="black" stroke="black" points="2279.04,-264.63 2287.83,-258.71 2277.27,-257.86 2279.04,-264.63"/>
</g>
<!-- 140251443621360 -->
<g id="node7" class="node">
<title>140251443621360</title>
<polygon fill="lightgrey" stroke="black" points="1932,-379.62 1838,-379.62 1838,-360.38 1932,-360.38 1932,-379.62"/>
<text text-anchor="middle" x="1885" y="-366.12" font-family="monospace" font-size="10.00">ReluBackward0</text>
</g>
<!-- 140251443621360&#45;&gt;140251443618144 -->
<g id="edge5" class="edge">
<title>140251443621360&#45;&gt;140251443618144</title>
<path fill="none" stroke="black" d="M1917.97,-359.93C1954.73,-349.82 2014.35,-333.41 2055.05,-322.22"/>
<polygon fill="black" stroke="black" points="2055.82,-325.63 2064.53,-319.61 2053.96,-318.89 2055.82,-325.63"/>
</g>
<!-- 140251443586864 -->
<g id="node8" class="node">
<title>140251443586864</title>
<polygon fill="lightgrey" stroke="black" points="1924,-446.12 1764,-446.12 1764,-426.88 1924,-426.88 1924,-446.12"/>
<text text-anchor="middle" x="1844" y="-432.62" font-family="monospace" font-size="10.00">NativeBatchNormBackward0</text>
</g>
<!-- 140251443586864&#45;&gt;140251443621360 -->
<g id="edge6" class="edge">
<title>140251443586864&#45;&gt;140251443621360</title>
<path fill="none" stroke="black" d="M1849.7,-426.53C1855.76,-417 1865.51,-401.66 1873.23,-389.52"/>
<polygon fill="black" stroke="black" points="1876.12,-391.49 1878.54,-381.17 1870.22,-387.73 1876.12,-391.49"/>
</g>
<!-- 140251443585472 -->
<g id="node9" class="node">
<title>140251443585472</title>
<polygon fill="lightgrey" stroke="black" points="1687,-507 1551,-507 1551,-487.75 1687,-487.75 1687,-507"/>
<text text-anchor="middle" x="1619" y="-493.5" font-family="monospace" font-size="10.00">ConvolutionBackward0</text>
</g>
<!-- 140251443585472&#45;&gt;140251443586864 -->
<g id="edge7" class="edge">
<title>140251443585472&#45;&gt;140251443586864</title>
<path fill="none" stroke="black" d="M1653.66,-487.3C1692.48,-477.15 1755.53,-460.65 1798.34,-449.45"/>
<polygon fill="black" stroke="black" points="1799.04,-452.88 1807.83,-446.96 1797.27,-446.11 1799.04,-452.88"/>
</g>
<!-- 140251443585232 -->
<g id="node10" class="node">
<title>140251443585232</title>
<polygon fill="lightgrey" stroke="black" points="1452,-567.88 1358,-567.88 1358,-548.62 1452,-548.62 1452,-567.88"/>
<text text-anchor="middle" x="1405" y="-554.38" font-family="monospace" font-size="10.00">ReluBackward0</text>
</g>
<!-- 140251443585232&#45;&gt;140251443585472 -->
<g id="edge8" class="edge">
<title>140251443585232&#45;&gt;140251443585472</title>
<path fill="none" stroke="black" d="M1437.97,-548.18C1474.73,-538.07 1534.35,-521.66 1575.05,-510.47"/>
<polygon fill="black" stroke="black" points="1575.82,-513.88 1584.53,-507.86 1573.96,-507.14 1575.82,-513.88"/>
</g>
<!-- 140251443585616 -->
<g id="node11" class="node">
<title>140251443585616</title>
<polygon fill="lightgrey" stroke="black" points="1444,-634.38 1284,-634.38 1284,-615.12 1444,-615.12 1444,-634.38"/>
<text text-anchor="middle" x="1364" y="-620.88" font-family="monospace" font-size="10.00">NativeBatchNormBackward0</text>
</g>
<!-- 140251443585616&#45;&gt;140251443585232 -->
<g id="edge9" class="edge">
<title>140251443585616&#45;&gt;140251443585232</title>
<path fill="none" stroke="black" d="M1369.7,-614.78C1375.76,-605.25 1385.51,-589.91 1393.23,-577.77"/>
<polygon fill="black" stroke="black" points="1396.12,-579.74 1398.54,-569.42 1390.22,-575.98 1396.12,-579.74"/>
</g>
<!-- 140251443587152 -->
<g id="node12" class="node">
<title>140251443587152</title>
<polygon fill="lightgrey" stroke="black" points="1213,-695.25 1077,-695.25 1077,-676 1213,-676 1213,-695.25"/>
<text text-anchor="middle" x="1145" y="-681.75" font-family="monospace" font-size="10.00">ConvolutionBackward0</text>
</g>
<!-- 140251443587152&#45;&gt;140251443585616 -->
<g id="edge10" class="edge">
<title>140251443587152&#45;&gt;140251443585616</title>
<path fill="none" stroke="black" d="M1178.74,-675.55C1216.44,-665.42 1277.63,-648.97 1319.29,-637.77"/>
<polygon fill="black" stroke="black" points="1320.01,-641.2 1328.76,-635.22 1318.2,-634.44 1320.01,-641.2"/>
</g>
<!-- 140251440391072 -->
<g id="node13" class="node">
<title>140251440391072</title>
<polygon fill="lightgrey" stroke="black" points="981,-756.12 887,-756.12 887,-736.88 981,-736.88 981,-756.12"/>
<text text-anchor="middle" x="934" y="-742.62" font-family="monospace" font-size="10.00">ReluBackward0</text>
</g>
<!-- 140251440391072&#45;&gt;140251443587152 -->
<g id="edge11" class="edge">
<title>140251440391072&#45;&gt;140251443587152</title>
<path fill="none" stroke="black" d="M966.51,-736.43C1002.67,-726.34 1061.28,-709.98 1101.41,-698.79"/>
<polygon fill="black" stroke="black" points="1102.31,-702.17 1111,-696.11 1100.43,-695.43 1102.31,-702.17"/>
</g>
<!-- 140251440390400 -->
<g id="node14" class="node">
<title>140251440390400</title>
<polygon fill="lightgrey" stroke="black" points="976,-822.62 816,-822.62 816,-803.38 976,-803.38 976,-822.62"/>
<text text-anchor="middle" x="896" y="-809.12" font-family="monospace" font-size="10.00">NativeBatchNormBackward0</text>
</g>
<!-- 140251440390400&#45;&gt;140251440391072 -->
<g id="edge12" class="edge">
<title>140251440390400&#45;&gt;140251440391072</title>
<path fill="none" stroke="black" d="M901.28,-803.03C906.9,-793.5 915.94,-778.16 923.09,-766.02"/>
<polygon fill="black" stroke="black" points="925.93,-768.09 927.99,-757.7 919.9,-764.54 925.93,-768.09"/>
</g>
<!-- 140251440390784 -->
<g id="node15" class="node">
<title>140251440390784</title>
<polygon fill="lightgrey" stroke="black" points="745,-883.5 609,-883.5 609,-864.25 745,-864.25 745,-883.5"/>
<text text-anchor="middle" x="677" y="-870" font-family="monospace" font-size="10.00">ConvolutionBackward0</text>
</g>
<!-- 140251440390784&#45;&gt;140251440390400 -->
<g id="edge13" class="edge">
<title>140251440390784&#45;&gt;140251440390400</title>
<path fill="none" stroke="black" d="M710.74,-863.8C748.44,-853.67 809.63,-837.22 851.29,-826.02"/>
<polygon fill="black" stroke="black" points="852.01,-829.45 860.76,-823.47 850.2,-822.69 852.01,-829.45"/>
</g>
<!-- 140251588583680 -->
<g id="node16" class="node">
<title>140251588583680</title>
<polygon fill="lightgrey" stroke="black" points="513,-944.38 419,-944.38 419,-925.12 513,-925.12 513,-944.38"/>
<text text-anchor="middle" x="466" y="-930.88" font-family="monospace" font-size="10.00">ReluBackward0</text>
</g>
<!-- 140251588583680&#45;&gt;140251440390784 -->
<g id="edge14" class="edge">
<title>140251588583680&#45;&gt;140251440390784</title>
<path fill="none" stroke="black" d="M498.51,-924.68C534.67,-914.59 593.28,-898.23 633.41,-887.04"/>
<polygon fill="black" stroke="black" points="634.31,-890.42 643,-884.36 632.43,-883.68 634.31,-890.42"/>
</g>
<!-- 140251588583872 -->
<g id="node17" class="node">
<title>140251588583872</title>
<polygon fill="lightgrey" stroke="black" points="508,-1010.88 348,-1010.88 348,-991.62 508,-991.62 508,-1010.88"/>
<text text-anchor="middle" x="428" y="-997.38" font-family="monospace" font-size="10.00">NativeBatchNormBackward0</text>
</g>
<!-- 140251588583872&#45;&gt;140251588583680 -->
<g id="edge15" class="edge">
<title>140251588583872&#45;&gt;140251588583680</title>
<path fill="none" stroke="black" d="M433.28,-991.28C438.9,-981.75 447.94,-966.41 455.09,-954.27"/>
<polygon fill="black" stroke="black" points="457.93,-956.34 459.99,-945.95 451.9,-952.79 457.93,-956.34"/>
</g>
<!-- 140251588583968 -->
<g id="node18" class="node">
<title>140251588583968</title>
<polygon fill="lightgrey" stroke="black" points="336,-1071.75 200,-1071.75 200,-1052.5 336,-1052.5 336,-1071.75"/>
<text text-anchor="middle" x="268" y="-1058.25" font-family="monospace" font-size="10.00">ConvolutionBackward0</text>
</g>
<!-- 140251588583968&#45;&gt;140251588583872 -->
<g id="edge16" class="edge">
<title>140251588583968&#45;&gt;140251588583872</title>
<path fill="none" stroke="black" d="M292.65,-1052.05C319.43,-1042.2 362.44,-1026.38 392.77,-1015.21"/>
<polygon fill="black" stroke="black" points="393.73,-1018.59 401.9,-1011.85 391.31,-1012.02 393.73,-1018.59"/>
</g>
<!-- 140251588584160 -->
<g id="node19" class="node">
<title>140251588584160</title>
<polygon fill="lightgrey" stroke="black" points="181,-1132.62 81,-1132.62 81,-1113.38 181,-1113.38 181,-1132.62"/>
<text text-anchor="middle" x="131" y="-1119.12" font-family="monospace" font-size="10.00">AccumulateGrad</text>
</g>
<!-- 140251588584160&#45;&gt;140251588583968 -->
<g id="edge17" class="edge">
<title>140251588584160&#45;&gt;140251588583968</title>
<path fill="none" stroke="black" d="M152.11,-1112.93C174.7,-1103.22 210.78,-1087.71 236.69,-1076.58"/>
<polygon fill="black" stroke="black" points="237.9,-1079.87 245.7,-1072.71 235.13,-1073.44 237.9,-1079.87"/>
</g>
<!-- 140251442841616 -->
<g id="node20" class="node">
<title>140251442841616</title>
<polygon fill="lightblue" stroke="black" points="184,-1204.75 0,-1204.75 0,-1174.25 184,-1174.25 184,-1204.75"/>
<text text-anchor="middle" x="92" y="-1191.25" font-family="monospace" font-size="10.00">encoder.conv_layers.0.weight</text>
<text text-anchor="middle" x="92" y="-1180" font-family="monospace" font-size="10.00"> (64, 1, 3)</text>
</g>
<!-- 140251442841616&#45;&gt;140251588584160 -->
<g id="edge18" class="edge">
<title>140251442841616&#45;&gt;140251588584160</title>
<path fill="none" stroke="black" d="M100.85,-1173.86C106.46,-1164.58 113.77,-1152.5 119.79,-1142.55"/>
<polygon fill="black" stroke="black" points="122.7,-1144.49 124.88,-1134.12 116.71,-1140.86 122.7,-1144.49"/>
</g>
<!-- 140251588584112 -->
<g id="node21" class="node">
<title>140251588584112</title>
<polygon fill="lightgrey" stroke="black" points="318,-1132.62 218,-1132.62 218,-1113.38 318,-1113.38 318,-1132.62"/>
<text text-anchor="middle" x="268" y="-1119.12" font-family="monospace" font-size="10.00">AccumulateGrad</text>
</g>
<!-- 140251588584112&#45;&gt;140251588583968 -->
<g id="edge19" class="edge">
<title>140251588584112&#45;&gt;140251588583968</title>
<path fill="none" stroke="black" d="M268,-1113.06C268,-1105.28 268,-1093.7 268,-1083.66"/>
<polygon fill="black" stroke="black" points="271.5,-1083.66 268,-1073.66 264.5,-1083.66 271.5,-1083.66"/>
</g>
<!-- 140251588506464 -->
<g id="node22" class="node">
<title>140251588506464</title>
<polygon fill="lightblue" stroke="black" points="374,-1204.75 202,-1204.75 202,-1174.25 374,-1174.25 374,-1204.75"/>
<text text-anchor="middle" x="288" y="-1191.25" font-family="monospace" font-size="10.00">encoder.conv_layers.0.bias</text>
<text text-anchor="middle" x="288" y="-1180" font-family="monospace" font-size="10.00"> (64)</text>
</g>
<!-- 140251588506464&#45;&gt;140251588584112 -->
<g id="edge20" class="edge">
<title>140251588506464&#45;&gt;140251588584112</title>
<path fill="none" stroke="black" d="M283.46,-1173.86C280.68,-1164.88 277.07,-1153.26 274.05,-1143.51"/>
<polygon fill="black" stroke="black" points="277.49,-1142.78 271.18,-1134.27 270.8,-1144.86 277.49,-1142.78"/>
</g>
<!-- 140251588583920 -->
<g id="node23" class="node">
<title>140251588583920</title>
<polygon fill="lightgrey" stroke="black" points="478,-1071.75 378,-1071.75 378,-1052.5 478,-1052.5 478,-1071.75"/>
<text text-anchor="middle" x="428" y="-1058.25" font-family="monospace" font-size="10.00">AccumulateGrad</text>
</g>
<!-- 140251588583920&#45;&gt;140251588583872 -->
<g id="edge21" class="edge">
<title>140251588583920&#45;&gt;140251588583872</title>
<path fill="none" stroke="black" d="M428,-1052.18C428,-1044.4 428,-1032.83 428,-1022.78"/>
<polygon fill="black" stroke="black" points="431.5,-1022.79 428,-1012.79 424.5,-1022.79 431.5,-1022.79"/>
</g>
<!-- 140251588507184 -->
<g id="node24" class="node">
<title>140251588507184</title>
<polygon fill="lightblue" stroke="black" points="520,-1138.25 336,-1138.25 336,-1107.75 520,-1107.75 520,-1138.25"/>
<text text-anchor="middle" x="428" y="-1124.75" font-family="monospace" font-size="10.00">encoder.conv_layers.1.weight</text>
<text text-anchor="middle" x="428" y="-1113.5" font-family="monospace" font-size="10.00"> (64)</text>
</g>
<!-- 140251588507184&#45;&gt;140251588583920 -->
<g id="edge22" class="edge">
<title>140251588507184&#45;&gt;140251588583920</title>
<path fill="none" stroke="black" d="M428,-1107.45C428,-1100.21 428,-1091.34 428,-1083.44"/>
<polygon fill="black" stroke="black" points="431.5,-1083.71 428,-1073.71 424.5,-1083.71 431.5,-1083.71"/>
</g>
<!-- 140251588583776 -->
<g id="node25" class="node">
<title>140251588583776</title>
<polygon fill="lightgrey" stroke="black" points="635,-1071.75 535,-1071.75 535,-1052.5 635,-1052.5 635,-1071.75"/>
<text text-anchor="middle" x="585" y="-1058.25" font-family="monospace" font-size="10.00">AccumulateGrad</text>
</g>
<!-- 140251588583776&#45;&gt;140251588583872 -->
<g id="edge23" class="edge">
<title>140251588583776&#45;&gt;140251588583872</title>
<path fill="none" stroke="black" d="M560.81,-1052.05C534.65,-1042.24 492.71,-1026.51 462.96,-1015.36"/>
<polygon fill="black" stroke="black" points="464.22,-1012.1 453.63,-1011.86 461.77,-1018.65 464.22,-1012.1"/>
</g>
<!-- 140251588507504 -->
<g id="node26" class="node">
<title>140251588507504</title>
<polygon fill="lightblue" stroke="black" points="710,-1138.25 538,-1138.25 538,-1107.75 710,-1107.75 710,-1138.25"/>
<text text-anchor="middle" x="624" y="-1124.75" font-family="monospace" font-size="10.00">encoder.conv_layers.1.bias</text>
<text text-anchor="middle" x="624" y="-1113.5" font-family="monospace" font-size="10.00"> (64)</text>
</g>
<!-- 140251588507504&#45;&gt;140251588583776 -->
<g id="edge24" class="edge">
<title>140251588507504&#45;&gt;140251588583776</title>
<path fill="none" stroke="black" d="M614.36,-1107.45C609.22,-1099.69 602.84,-1090.06 597.35,-1081.76"/>
<polygon fill="black" stroke="black" points="600.29,-1079.87 591.85,-1073.46 594.45,-1083.73 600.29,-1079.87"/>
</g>
<!-- 140251588583632 -->
<g id="node27" class="node">
<title>140251588583632</title>
<polygon fill="lightgrey" stroke="black" points="668,-944.38 568,-944.38 568,-925.12 668,-925.12 668,-944.38"/>
<text text-anchor="middle" x="618" y="-930.88" font-family="monospace" font-size="10.00">AccumulateGrad</text>
</g>
<!-- 140251588583632&#45;&gt;140251440390784 -->
<g id="edge25" class="edge">
<title>140251588583632&#45;&gt;140251440390784</title>
<path fill="none" stroke="black" d="M626.96,-924.81C635.71,-916.08 649.25,-902.57 660.04,-891.8"/>
<polygon fill="black" stroke="black" points="662.28,-894.51 666.88,-884.97 657.33,-889.56 662.28,-894.51"/>
</g>
<!-- 140251858000208 -->
<g id="node28" class="node">
<title>140251858000208</title>
<polygon fill="lightblue" stroke="black" points="710,-1016.5 526,-1016.5 526,-986 710,-986 710,-1016.5"/>
<text text-anchor="middle" x="618" y="-1003" font-family="monospace" font-size="10.00">encoder.conv_layers.3.weight</text>
<text text-anchor="middle" x="618" y="-991.75" font-family="monospace" font-size="10.00"> (128, 64, 3)</text>
</g>
<!-- 140251858000208&#45;&gt;140251588583632 -->
<g id="edge26" class="edge">
<title>140251858000208&#45;&gt;140251588583632</title>
<path fill="none" stroke="black" d="M618,-985.61C618,-976.83 618,-965.52 618,-955.9"/>
<polygon fill="black" stroke="black" points="621.5,-956.09 618,-946.09 614.5,-956.09 621.5,-956.09"/>
</g>
<!-- 140251588583584 -->
<g id="node29" class="node">
<title>140251588583584</title>
<polygon fill="lightgrey" stroke="black" points="786,-944.38 686,-944.38 686,-925.12 786,-925.12 786,-944.38"/>
<text text-anchor="middle" x="736" y="-930.88" font-family="monospace" font-size="10.00">AccumulateGrad</text>
</g>
<!-- 140251588583584&#45;&gt;140251440390784 -->
<g id="edge27" class="edge">
<title>140251588583584&#45;&gt;140251440390784</title>
<path fill="none" stroke="black" d="M727.04,-924.81C718.29,-916.08 704.75,-902.57 693.96,-891.8"/>
<polygon fill="black" stroke="black" points="696.67,-889.56 687.12,-884.97 691.72,-894.51 696.67,-889.56"/>
</g>
<!-- 140251440970624 -->
<g id="node30" class="node">
<title>140251440970624</title>
<polygon fill="lightblue" stroke="black" points="900,-1016.5 728,-1016.5 728,-986 900,-986 900,-1016.5"/>
<text text-anchor="middle" x="814" y="-1003" font-family="monospace" font-size="10.00">encoder.conv_layers.3.bias</text>
<text text-anchor="middle" x="814" y="-991.75" font-family="monospace" font-size="10.00"> (128)</text>
</g>
<!-- 140251440970624&#45;&gt;140251588583584 -->
<g id="edge28" class="edge">
<title>140251440970624&#45;&gt;140251588583584</title>
<path fill="none" stroke="black" d="M796.3,-985.61C784.12,-975.54 767.95,-962.17 755.42,-951.81"/>
<polygon fill="black" stroke="black" points="757.77,-949.21 747.84,-945.54 753.31,-954.61 757.77,-949.21"/>
</g>
<!-- 140251440390208 -->
<g id="node31" class="node">
<title>140251440390208</title>
<polygon fill="lightgrey" stroke="black" points="946,-883.5 846,-883.5 846,-864.25 946,-864.25 946,-883.5"/>
<text text-anchor="middle" x="896" y="-870" font-family="monospace" font-size="10.00">AccumulateGrad</text>
</g>
<!-- 140251440390208&#45;&gt;140251440390400 -->
<g id="edge29" class="edge">
<title>140251440390208&#45;&gt;140251440390400</title>
<path fill="none" stroke="black" d="M896,-863.93C896,-856.15 896,-844.58 896,-834.53"/>
<polygon fill="black" stroke="black" points="899.5,-834.54 896,-824.54 892.5,-834.54 899.5,-834.54"/>
</g>
<!-- 140251465300384 -->
<g id="node32" class="node">
<title>140251465300384</title>
<polygon fill="lightblue" stroke="black" points="988,-950 804,-950 804,-919.5 988,-919.5 988,-950"/>
<text text-anchor="middle" x="896" y="-936.5" font-family="monospace" font-size="10.00">encoder.conv_layers.4.weight</text>
<text text-anchor="middle" x="896" y="-925.25" font-family="monospace" font-size="10.00"> (128)</text>
</g>
<!-- 140251465300384&#45;&gt;140251440390208 -->
<g id="edge30" class="edge">
<title>140251465300384&#45;&gt;140251440390208</title>
<path fill="none" stroke="black" d="M896,-919.2C896,-911.96 896,-903.09 896,-895.19"/>
<polygon fill="black" stroke="black" points="899.5,-895.46 896,-885.46 892.5,-895.46 899.5,-895.46"/>
</g>
<!-- 140251588583488 -->
<g id="node33" class="node">
<title>140251588583488</title>
<polygon fill="lightgrey" stroke="black" points="1103,-883.5 1003,-883.5 1003,-864.25 1103,-864.25 1103,-883.5"/>
<text text-anchor="middle" x="1053" y="-870" font-family="monospace" font-size="10.00">AccumulateGrad</text>
</g>
<!-- 140251588583488&#45;&gt;140251440390400 -->
<g id="edge31" class="edge">
<title>140251588583488&#45;&gt;140251440390400</title>
<path fill="none" stroke="black" d="M1028.81,-863.8C1002.65,-853.99 960.71,-838.26 930.96,-827.11"/>
<polygon fill="black" stroke="black" points="932.22,-823.85 921.63,-823.61 929.77,-830.4 932.22,-823.85"/>
</g>
<!-- 140251465299984 -->
<g id="node34" class="node">
<title>140251465299984</title>
<polygon fill="lightblue" stroke="black" points="1178,-950 1006,-950 1006,-919.5 1178,-919.5 1178,-950"/>
<text text-anchor="middle" x="1092" y="-936.5" font-family="monospace" font-size="10.00">encoder.conv_layers.4.bias</text>
<text text-anchor="middle" x="1092" y="-925.25" font-family="monospace" font-size="10.00"> (128)</text>
</g>
<!-- 140251465299984&#45;&gt;140251588583488 -->
<g id="edge32" class="edge">
<title>140251465299984&#45;&gt;140251588583488</title>
<path fill="none" stroke="black" d="M1082.36,-919.2C1077.22,-911.44 1070.84,-901.81 1065.35,-893.51"/>
<polygon fill="black" stroke="black" points="1068.29,-891.62 1059.85,-885.21 1062.45,-895.48 1068.29,-891.62"/>
</g>
<!-- 140251440390304 -->
<g id="node35" class="node">
<title>140251440390304</title>
<polygon fill="lightgrey" stroke="black" points="1136,-756.12 1036,-756.12 1036,-736.88 1136,-736.88 1136,-756.12"/>
<text text-anchor="middle" x="1086" y="-742.62" font-family="monospace" font-size="10.00">AccumulateGrad</text>
</g>
<!-- 140251440390304&#45;&gt;140251443587152 -->
<g id="edge33" class="edge">
<title>140251440390304&#45;&gt;140251443587152</title>
<path fill="none" stroke="black" d="M1094.96,-736.56C1103.71,-727.83 1117.25,-714.32 1128.04,-703.55"/>
<polygon fill="black" stroke="black" points="1130.28,-706.26 1134.88,-696.72 1125.33,-701.31 1130.28,-706.26"/>
</g>
<!-- 140251489297008 -->
<g id="node36" class="node">
<title>140251489297008</title>
<polygon fill="lightblue" stroke="black" points="1178,-828.25 994,-828.25 994,-797.75 1178,-797.75 1178,-828.25"/>
<text text-anchor="middle" x="1086" y="-814.75" font-family="monospace" font-size="10.00">encoder.conv_layers.6.weight</text>
<text text-anchor="middle" x="1086" y="-803.5" font-family="monospace" font-size="10.00"> (256, 128, 3)</text>
</g>
<!-- 140251489297008&#45;&gt;140251440390304 -->
<g id="edge34" class="edge">
<title>140251489297008&#45;&gt;140251440390304</title>
<path fill="none" stroke="black" d="M1086,-797.36C1086,-788.58 1086,-777.27 1086,-767.65"/>
<polygon fill="black" stroke="black" points="1089.5,-767.84 1086,-757.84 1082.5,-767.84 1089.5,-767.84"/>
</g>
<!-- 140251440391024 -->
<g id="node37" class="node">
<title>140251440391024</title>
<polygon fill="lightgrey" stroke="black" points="1254,-756.12 1154,-756.12 1154,-736.88 1254,-736.88 1254,-756.12"/>
<text text-anchor="middle" x="1204" y="-742.62" font-family="monospace" font-size="10.00">AccumulateGrad</text>
</g>
<!-- 140251440391024&#45;&gt;140251443587152 -->
<g id="edge35" class="edge">
<title>140251440391024&#45;&gt;140251443587152</title>
<path fill="none" stroke="black" d="M1195.04,-736.56C1186.29,-727.83 1172.75,-714.32 1161.96,-703.55"/>
<polygon fill="black" stroke="black" points="1164.67,-701.31 1155.12,-696.72 1159.72,-706.26 1164.67,-701.31"/>
</g>
<!-- 140251858321792 -->
<g id="node38" class="node">
<title>140251858321792</title>
<polygon fill="lightblue" stroke="black" points="1368,-828.25 1196,-828.25 1196,-797.75 1368,-797.75 1368,-828.25"/>
<text text-anchor="middle" x="1282" y="-814.75" font-family="monospace" font-size="10.00">encoder.conv_layers.6.bias</text>
<text text-anchor="middle" x="1282" y="-803.5" font-family="monospace" font-size="10.00"> (256)</text>
</g>
<!-- 140251858321792&#45;&gt;140251440391024 -->
<g id="edge36" class="edge">
<title>140251858321792&#45;&gt;140251440391024</title>
<path fill="none" stroke="black" d="M1264.3,-797.36C1252.12,-787.29 1235.95,-773.92 1223.42,-763.56"/>
<polygon fill="black" stroke="black" points="1225.77,-760.96 1215.84,-757.29 1221.31,-766.36 1225.77,-760.96"/>
</g>
<!-- 140251443586912 -->
<g id="node39" class="node">
<title>140251443586912</title>
<polygon fill="lightgrey" stroke="black" points="1414,-695.25 1314,-695.25 1314,-676 1414,-676 1414,-695.25"/>
<text text-anchor="middle" x="1364" y="-681.75" font-family="monospace" font-size="10.00">AccumulateGrad</text>
</g>
<!-- 140251443586912&#45;&gt;140251443585616 -->
<g id="edge37" class="edge">
<title>140251443586912&#45;&gt;140251443585616</title>
<path fill="none" stroke="black" d="M1364,-675.68C1364,-667.9 1364,-656.33 1364,-646.28"/>
<polygon fill="black" stroke="black" points="1367.5,-646.29 1364,-636.29 1360.5,-646.29 1367.5,-646.29"/>
</g>
<!-- 140251858321632 -->
<g id="node40" class="node">
<title>140251858321632</title>
<polygon fill="lightblue" stroke="black" points="1456,-761.75 1272,-761.75 1272,-731.25 1456,-731.25 1456,-761.75"/>
<text text-anchor="middle" x="1364" y="-748.25" font-family="monospace" font-size="10.00">encoder.conv_layers.7.weight</text>
<text text-anchor="middle" x="1364" y="-737" font-family="monospace" font-size="10.00"> (256)</text>
</g>
<!-- 140251858321632&#45;&gt;140251443586912 -->
<g id="edge38" class="edge">
<title>140251858321632&#45;&gt;140251443586912</title>
<path fill="none" stroke="black" d="M1364,-730.95C1364,-723.71 1364,-714.84 1364,-706.94"/>
<polygon fill="black" stroke="black" points="1367.5,-707.21 1364,-697.21 1360.5,-707.21 1367.5,-707.21"/>
</g>
<!-- 140251443586720 -->
<g id="node41" class="node">
<title>140251443586720</title>
<polygon fill="lightgrey" stroke="black" points="1571,-695.25 1471,-695.25 1471,-676 1571,-676 1571,-695.25"/>
<text text-anchor="middle" x="1521" y="-681.75" font-family="monospace" font-size="10.00">AccumulateGrad</text>
</g>
<!-- 140251443586720&#45;&gt;140251443585616 -->
<g id="edge39" class="edge">
<title>140251443586720&#45;&gt;140251443585616</title>
<path fill="none" stroke="black" d="M1496.81,-675.55C1470.65,-665.74 1428.71,-650.01 1398.96,-638.86"/>
<polygon fill="black" stroke="black" points="1400.22,-635.6 1389.63,-635.36 1397.77,-642.15 1400.22,-635.6"/>
</g>
<!-- 140251588507584 -->
<g id="node42" class="node">
<title>140251588507584</title>
<polygon fill="lightblue" stroke="black" points="1646,-761.75 1474,-761.75 1474,-731.25 1646,-731.25 1646,-761.75"/>
<text text-anchor="middle" x="1560" y="-748.25" font-family="monospace" font-size="10.00">encoder.conv_layers.7.bias</text>
<text text-anchor="middle" x="1560" y="-737" font-family="monospace" font-size="10.00"> (256)</text>
</g>
<!-- 140251588507584&#45;&gt;140251443586720 -->
<g id="edge40" class="edge">
<title>140251588507584&#45;&gt;140251443586720</title>
<path fill="none" stroke="black" d="M1550.36,-730.95C1545.22,-723.19 1538.84,-713.56 1533.35,-705.26"/>
<polygon fill="black" stroke="black" points="1536.29,-703.37 1527.85,-696.96 1530.45,-707.23 1536.29,-703.37"/>
</g>
<!-- 140251443586624 -->
<g id="node43" class="node">
<title>140251443586624</title>
<polygon fill="lightgrey" stroke="black" points="1610,-567.88 1510,-567.88 1510,-548.62 1610,-548.62 1610,-567.88"/>
<text text-anchor="middle" x="1560" y="-554.38" font-family="monospace" font-size="10.00">AccumulateGrad</text>
</g>
<!-- 140251443586624&#45;&gt;140251443585472 -->
<g id="edge41" class="edge">
<title>140251443586624&#45;&gt;140251443585472</title>
<path fill="none" stroke="black" d="M1568.96,-548.31C1577.71,-539.58 1591.25,-526.07 1602.04,-515.3"/>
<polygon fill="black" stroke="black" points="1604.28,-518.01 1608.88,-508.47 1599.33,-513.06 1604.28,-518.01"/>
</g>
<!-- 140251588507664 -->
<g id="node44" class="node">
<title>140251588507664</title>
<polygon fill="lightblue" stroke="black" points="1658,-640 1462,-640 1462,-609.5 1658,-609.5 1658,-640"/>
<text text-anchor="middle" x="1560" y="-626.5" font-family="monospace" font-size="10.00">decoder.deconv_layers.0.weight</text>
<text text-anchor="middle" x="1560" y="-615.25" font-family="monospace" font-size="10.00"> (256, 128, 3)</text>
</g>
<!-- 140251588507664&#45;&gt;140251443586624 -->
<g id="edge42" class="edge">
<title>140251588507664&#45;&gt;140251443586624</title>
<path fill="none" stroke="black" d="M1560,-609.11C1560,-600.33 1560,-589.02 1560,-579.4"/>
<polygon fill="black" stroke="black" points="1563.5,-579.59 1560,-569.59 1556.5,-579.59 1563.5,-579.59"/>
</g>
<!-- 140251443586768 -->
<g id="node45" class="node">
<title>140251443586768</title>
<polygon fill="lightgrey" stroke="black" points="1728,-567.88 1628,-567.88 1628,-548.62 1728,-548.62 1728,-567.88"/>
<text text-anchor="middle" x="1678" y="-554.38" font-family="monospace" font-size="10.00">AccumulateGrad</text>
</g>
<!-- 140251443586768&#45;&gt;140251443585472 -->
<g id="edge43" class="edge">
<title>140251443586768&#45;&gt;140251443585472</title>
<path fill="none" stroke="black" d="M1669.04,-548.31C1660.29,-539.58 1646.75,-526.07 1635.96,-515.3"/>
<polygon fill="black" stroke="black" points="1638.67,-513.06 1629.12,-508.47 1633.72,-518.01 1638.67,-513.06"/>
</g>
<!-- 140251588508224 -->
<g id="node46" class="node">
<title>140251588508224</title>
<polygon fill="lightblue" stroke="black" points="1860,-640 1676,-640 1676,-609.5 1860,-609.5 1860,-640"/>
<text text-anchor="middle" x="1768" y="-626.5" font-family="monospace" font-size="10.00">decoder.deconv_layers.0.bias</text>
<text text-anchor="middle" x="1768" y="-615.25" font-family="monospace" font-size="10.00"> (128)</text>
</g>
<!-- 140251588508224&#45;&gt;140251443586768 -->
<g id="edge44" class="edge">
<title>140251588508224&#45;&gt;140251443586768</title>
<path fill="none" stroke="black" d="M1747.58,-609.11C1733.33,-598.91 1714.35,-585.3 1699.81,-574.88"/>
<polygon fill="black" stroke="black" points="1701.97,-572.12 1691.8,-569.14 1697.89,-577.81 1701.97,-572.12"/>
</g>
<!-- 140251443586528 -->
<g id="node47" class="node">
<title>140251443586528</title>
<polygon fill="lightgrey" stroke="black" points="1894,-507 1794,-507 1794,-487.75 1894,-487.75 1894,-507"/>
<text text-anchor="middle" x="1844" y="-493.5" font-family="monospace" font-size="10.00">AccumulateGrad</text>
</g>
<!-- 140251443586528&#45;&gt;140251443586864 -->
<g id="edge45" class="edge">
<title>140251443586528&#45;&gt;140251443586864</title>
<path fill="none" stroke="black" d="M1844,-487.43C1844,-479.65 1844,-468.08 1844,-458.03"/>
<polygon fill="black" stroke="black" points="1847.5,-458.04 1844,-448.04 1840.5,-458.04 1847.5,-458.04"/>
</g>
<!-- 140251588508384 -->
<g id="node48" class="node">
<title>140251588508384</title>
<polygon fill="lightblue" stroke="black" points="1942,-573.5 1746,-573.5 1746,-543 1942,-543 1942,-573.5"/>
<text text-anchor="middle" x="1844" y="-560" font-family="monospace" font-size="10.00">decoder.deconv_layers.1.weight</text>
<text text-anchor="middle" x="1844" y="-548.75" font-family="monospace" font-size="10.00"> (128)</text>
</g>
<!-- 140251588508384&#45;&gt;140251443586528 -->
<g id="edge46" class="edge">
<title>140251588508384&#45;&gt;140251443586528</title>
<path fill="none" stroke="black" d="M1844,-542.7C1844,-535.46 1844,-526.59 1844,-518.69"/>
<polygon fill="black" stroke="black" points="1847.5,-518.96 1844,-508.96 1840.5,-518.96 1847.5,-518.96"/>
</g>
<!-- 140251443585664 -->
<g id="node49" class="node">
<title>140251443585664</title>
<polygon fill="lightgrey" stroke="black" points="2057,-507 1957,-507 1957,-487.75 2057,-487.75 2057,-507"/>
<text text-anchor="middle" x="2007" y="-493.5" font-family="monospace" font-size="10.00">AccumulateGrad</text>
</g>
<!-- 140251443585664&#45;&gt;140251443586864 -->
<g id="edge47" class="edge">
<title>140251443585664&#45;&gt;140251443586864</title>
<path fill="none" stroke="black" d="M1981.89,-487.3C1954.61,-477.45 1910.79,-461.63 1879.89,-450.46"/>
<polygon fill="black" stroke="black" points="1881.16,-447.2 1870.56,-447.09 1878.78,-453.78 1881.16,-447.2"/>
</g>
<!-- 140251588508464 -->
<g id="node50" class="node">
<title>140251588508464</title>
<polygon fill="lightblue" stroke="black" points="2144,-573.5 1960,-573.5 1960,-543 2144,-543 2144,-573.5"/>
<text text-anchor="middle" x="2052" y="-560" font-family="monospace" font-size="10.00">decoder.deconv_layers.1.bias</text>
<text text-anchor="middle" x="2052" y="-548.75" font-family="monospace" font-size="10.00"> (128)</text>
</g>
<!-- 140251588508464&#45;&gt;140251443585664 -->
<g id="edge48" class="edge">
<title>140251588508464&#45;&gt;140251443585664</title>
<path fill="none" stroke="black" d="M2040.88,-542.7C2034.82,-534.77 2027.26,-524.88 2020.82,-516.46"/>
<polygon fill="black" stroke="black" points="2023.71,-514.47 2014.86,-508.65 2018.15,-518.72 2023.71,-514.47"/>
</g>
<!-- 140251443620544 -->
<g id="node51" class="node">
<title>140251443620544</title>
<polygon fill="lightgrey" stroke="black" points="2090,-379.62 1990,-379.62 1990,-360.38 2090,-360.38 2090,-379.62"/>
<text text-anchor="middle" x="2040" y="-366.12" font-family="monospace" font-size="10.00">AccumulateGrad</text>
</g>
<!-- 140251443620544&#45;&gt;140251443618144 -->
<g id="edge49" class="edge">
<title>140251443620544&#45;&gt;140251443618144</title>
<path fill="none" stroke="black" d="M2048.96,-360.06C2057.71,-351.33 2071.25,-337.82 2082.04,-327.05"/>
<polygon fill="black" stroke="black" points="2084.28,-329.76 2088.88,-320.22 2079.33,-324.81 2084.28,-329.76"/>
</g>
<!-- 140251588508864 -->
<g id="node52" class="node">
<title>140251588508864</title>
<polygon fill="lightblue" stroke="black" points="2138,-451.75 1942,-451.75 1942,-421.25 2138,-421.25 2138,-451.75"/>
<text text-anchor="middle" x="2040" y="-438.25" font-family="monospace" font-size="10.00">decoder.deconv_layers.3.weight</text>
<text text-anchor="middle" x="2040" y="-427" font-family="monospace" font-size="10.00"> (128, 64, 3)</text>
</g>
<!-- 140251588508864&#45;&gt;140251443620544 -->
<g id="edge50" class="edge">
<title>140251588508864&#45;&gt;140251443620544</title>
<path fill="none" stroke="black" d="M2040,-420.86C2040,-412.08 2040,-400.77 2040,-391.15"/>
<polygon fill="black" stroke="black" points="2043.5,-391.34 2040,-381.34 2036.5,-391.34 2043.5,-391.34"/>
</g>
<!-- 140251443585568 -->
<g id="node53" class="node">
<title>140251443585568</title>
<polygon fill="lightgrey" stroke="black" points="2208,-379.62 2108,-379.62 2108,-360.38 2208,-360.38 2208,-379.62"/>
<text text-anchor="middle" x="2158" y="-366.12" font-family="monospace" font-size="10.00">AccumulateGrad</text>
</g>
<!-- 140251443585568&#45;&gt;140251443618144 -->
<g id="edge51" class="edge">
<title>140251443585568&#45;&gt;140251443618144</title>
<path fill="none" stroke="black" d="M2149.04,-360.06C2140.29,-351.33 2126.75,-337.82 2115.96,-327.05"/>
<polygon fill="black" stroke="black" points="2118.67,-324.81 2109.12,-320.22 2113.72,-329.76 2118.67,-324.81"/>
</g>
<!-- 140251588508704 -->
<g id="node54" class="node">
<title>140251588508704</title>
<polygon fill="lightblue" stroke="black" points="2340,-451.75 2156,-451.75 2156,-421.25 2340,-421.25 2340,-451.75"/>
<text text-anchor="middle" x="2248" y="-438.25" font-family="monospace" font-size="10.00">decoder.deconv_layers.3.bias</text>
<text text-anchor="middle" x="2248" y="-427" font-family="monospace" font-size="10.00"> (64)</text>
</g>
<!-- 140251588508704&#45;&gt;140251443585568 -->
<g id="edge52" class="edge">
<title>140251588508704&#45;&gt;140251443585568</title>
<path fill="none" stroke="black" d="M2227.58,-420.86C2213.33,-410.66 2194.35,-397.05 2179.81,-386.63"/>
<polygon fill="black" stroke="black" points="2181.97,-383.87 2171.8,-380.89 2177.89,-389.56 2181.97,-383.87"/>
</g>
<!-- 140251443620928 -->
<g id="node55" class="node">
<title>140251443620928</title>
<polygon fill="lightgrey" stroke="black" points="2374,-318.75 2274,-318.75 2274,-299.5 2374,-299.5 2374,-318.75"/>
<text text-anchor="middle" x="2324" y="-305.25" font-family="monospace" font-size="10.00">AccumulateGrad</text>
</g>
<!-- 140251443620928&#45;&gt;140251443621216 -->
<g id="edge53" class="edge">
<title>140251443620928&#45;&gt;140251443621216</title>
<path fill="none" stroke="black" d="M2324,-299.18C2324,-291.4 2324,-279.83 2324,-269.78"/>
<polygon fill="black" stroke="black" points="2327.5,-269.79 2324,-259.79 2320.5,-269.79 2327.5,-269.79"/>
</g>
<!-- 140251588509024 -->
<g id="node56" class="node">
<title>140251588509024</title>
<polygon fill="lightblue" stroke="black" points="2422,-385.25 2226,-385.25 2226,-354.75 2422,-354.75 2422,-385.25"/>
<text text-anchor="middle" x="2324" y="-371.75" font-family="monospace" font-size="10.00">decoder.deconv_layers.4.weight</text>
<text text-anchor="middle" x="2324" y="-360.5" font-family="monospace" font-size="10.00"> (64)</text>
</g>
<!-- 140251588509024&#45;&gt;140251443620928 -->
<g id="edge54" class="edge">
<title>140251588509024&#45;&gt;140251443620928</title>
<path fill="none" stroke="black" d="M2324,-354.45C2324,-347.21 2324,-338.34 2324,-330.44"/>
<polygon fill="black" stroke="black" points="2327.5,-330.71 2324,-320.71 2320.5,-330.71 2327.5,-330.71"/>
</g>
<!-- 140251443620592 -->
<g id="node57" class="node">
<title>140251443620592</title>
<polygon fill="lightgrey" stroke="black" points="2537,-318.75 2437,-318.75 2437,-299.5 2537,-299.5 2537,-318.75"/>
<text text-anchor="middle" x="2487" y="-305.25" font-family="monospace" font-size="10.00">AccumulateGrad</text>
</g>
<!-- 140251443620592&#45;&gt;140251443621216 -->
<g id="edge55" class="edge">
<title>140251443620592&#45;&gt;140251443621216</title>
<path fill="none" stroke="black" d="M2461.89,-299.05C2434.61,-289.2 2390.79,-273.38 2359.89,-262.21"/>
<polygon fill="black" stroke="black" points="2361.16,-258.95 2350.56,-258.84 2358.78,-265.53 2361.16,-258.95"/>
</g>
<!-- 140251588509104 -->
<g id="node58" class="node">
<title>140251588509104</title>
<polygon fill="lightblue" stroke="black" points="2624,-385.25 2440,-385.25 2440,-354.75 2624,-354.75 2624,-385.25"/>
<text text-anchor="middle" x="2532" y="-371.75" font-family="monospace" font-size="10.00">decoder.deconv_layers.4.bias</text>
<text text-anchor="middle" x="2532" y="-360.5" font-family="monospace" font-size="10.00"> (64)</text>
</g>
<!-- 140251588509104&#45;&gt;140251443620592 -->
<g id="edge56" class="edge">
<title>140251588509104&#45;&gt;140251443620592</title>
<path fill="none" stroke="black" d="M2520.88,-354.45C2514.82,-346.52 2507.26,-336.63 2500.82,-328.21"/>
<polygon fill="black" stroke="black" points="2503.71,-326.22 2494.86,-320.4 2498.15,-330.47 2503.71,-326.22"/>
</g>
<!-- 140251443074624 -->
<g id="node59" class="node">
<title>140251443074624</title>
<polygon fill="lightgrey" stroke="black" points="2570,-197 2470,-197 2470,-177.75 2570,-177.75 2570,-197"/>
<text text-anchor="middle" x="2520" y="-183.5" font-family="monospace" font-size="10.00">AccumulateGrad</text>
</g>
<!-- 140251443074624&#45;&gt;140251440973952 -->
<g id="edge57" class="edge">
<title>140251443074624&#45;&gt;140251440973952</title>
<path fill="none" stroke="black" d="M2520,-177.58C2520,-171.07 2520,-161.92 2520,-153.62"/>
<polygon fill="black" stroke="black" points="2523.5,-153.62 2520,-143.62 2516.5,-153.62 2523.5,-153.62"/>
</g>
<!-- 140251588509424 -->
<g id="node60" class="node">
<title>140251588509424</title>
<polygon fill="lightblue" stroke="black" points="2618,-263.5 2422,-263.5 2422,-233 2618,-233 2618,-263.5"/>
<text text-anchor="middle" x="2520" y="-250" font-family="monospace" font-size="10.00">decoder.deconv_layers.6.weight</text>
<text text-anchor="middle" x="2520" y="-238.75" font-family="monospace" font-size="10.00"> (64, 1, 3)</text>
</g>
<!-- 140251588509424&#45;&gt;140251443074624 -->
<g id="edge58" class="edge">
<title>140251588509424&#45;&gt;140251443074624</title>
<path fill="none" stroke="black" d="M2520,-232.7C2520,-225.46 2520,-216.59 2520,-208.69"/>
<polygon fill="black" stroke="black" points="2523.5,-208.96 2520,-198.96 2516.5,-208.96 2523.5,-208.96"/>
</g>
<!-- 140251443074816 -->
<g id="node61" class="node">
<title>140251443074816</title>
<polygon fill="lightgrey" stroke="black" points="2733,-197 2633,-197 2633,-177.75 2733,-177.75 2733,-197"/>
<text text-anchor="middle" x="2683" y="-183.5" font-family="monospace" font-size="10.00">AccumulateGrad</text>
</g>
<!-- 140251443074816&#45;&gt;140251440973952 -->
<g id="edge59" class="edge">
<title>140251443074816&#45;&gt;140251440973952</title>
<path fill="none" stroke="black" d="M2655.35,-177.34C2628.77,-168.66 2588.36,-155.46 2558.61,-145.74"/>
<polygon fill="black" stroke="black" points="2559.82,-142.45 2549.23,-142.67 2557.64,-149.1 2559.82,-142.45"/>
</g>
<!-- 140251588509344 -->
<g id="node62" class="node">
<title>140251588509344</title>
<polygon fill="lightblue" stroke="black" points="2820,-263.5 2636,-263.5 2636,-233 2820,-233 2820,-263.5"/>
<text text-anchor="middle" x="2728" y="-250" font-family="monospace" font-size="10.00">decoder.deconv_layers.6.bias</text>
<text text-anchor="middle" x="2728" y="-238.75" font-family="monospace" font-size="10.00"> (1)</text>
</g>
<!-- 140251588509344&#45;&gt;140251443074816 -->
<g id="edge60" class="edge">
<title>140251588509344&#45;&gt;140251443074816</title>
<path fill="none" stroke="black" d="M2716.88,-232.7C2710.82,-224.77 2703.26,-214.88 2696.82,-206.46"/>
<polygon fill="black" stroke="black" points="2699.71,-204.47 2690.86,-198.65 2694.15,-208.72 2699.71,-204.47"/>
</g>
</g>
</svg>
